<svg height="132" width="300" xmlns="http://www.w3.org/2000/svg"><g fill="none" fill-rule="evenodd"><path d="M36 35.548C5.286 25.354 0 38.884 0 38.884c15.36 0 30.72 19.638 30.72 19.638 20.478 25.476 35.832 25.476 35.832 25.476 4.578 0 8.616-.96 12.138-2.232C76.77 75.874 84 69.592 84 63.028c0-7.644 15.186-8.73 18-16.71-20.442 2.652-66-10.77-66-10.77" fill="#46A046"/><path d="M84 66c1.74-2.394 4.944-10.458 4.944-12.984 0-5.412 16.08-11.178 19.056-16.83-30.972 2.136-70.056-4.404-70.056-4.404C.498 23.748 0 38.886 0 38.886 17.748 34.5 36.348 44.43 36.348 44.43 72.528 63.576 82.026 66.174 84 66" fill="#8CBE3C"/><path d="M198 46.315c2.814 7.986 18 9.072 18 16.716 0 6.558 7.23 12.846 5.31 18.732 3.522 1.278 7.56 2.238 12.138 2.238 0 0 15.354 0 35.832-25.482 0 0 15.36-19.632 30.72-19.632 0 0-5.286-13.53-36-3.342 0 0-45.558 13.428-66 10.77" fill="#46A046"/><path d="M216 66c-1.74-2.394-4.944-10.458-4.944-12.984 0-5.412-16.08-11.178-19.056-16.83 30.972 2.136 70.056-4.404 70.056-4.404C299.502 23.748 300 38.886 300 38.886c-17.748-4.386-36.348 5.544-36.348 5.544C227.472 63.576 217.974 66.174 216 66" fill="#8CBE3C"/><path d="M150 0c-41.64 0-64.05 52.014-72.936 74.976a26.12 26.12 0 0 0-1.218 14.568c1.044 5.178 4.176 9.588 8.298 12.456L132 132h36l47.994-30.096c3.474-2.412 6.342-5.892 7.608-10.134a26.15 26.15 0 0 0-.666-16.794C214.05 52.014 191.64 0 150 0" fill="#8CBE3C"/><path d="M156 84h-12a3.001 3.001 0 0 1 0-6h12a3.001 3.001 0 0 1 0 6" fill="#46A046"/><path d="M147 .233V18a3.001 3.001 0 0 0 6 0V.233C151.998.173 151.026 0 150 0s-1.998.174-3 .234ZM126 24a3.001 3.001 0 0 0 6 0V3.587a53.503 53.503 0 0 0-6 2.808V24Zm42-20.412V24a3.001 3.001 0 0 0 6 0V6.395a53.503 53.503 0 0 0-6-2.808ZM198 67.5a1.5 1.5 0 0 1-1.5-1.5c0-12.408-10.098-22.5-22.5-22.5S151.5 53.592 151.5 66h-3c0-12.408-10.098-22.5-22.5-22.5S103.5 53.592 103.5 66a1.5 1.5 0 0 1-3 0c0-14.058 11.436-25.5 25.5-25.5 11.04 0 20.454 7.044 24 16.878 3.546-9.834 12.96-16.878 24-16.878 14.064 0 25.5 11.442 25.5 25.5a1.5 1.5 0 0 1-1.5 1.5" fill="#46A046" opacity=".5"/><path d="M132 72c0 3.312-2.688 6-6 6s-6-2.688-6-6 2.688-6 6-6 6 2.688 6 6M180 72c0 3.312-2.688 6-6 6s-6-2.688-6-6 2.688-6 6-6 6 2.688 6 6" fill="#FFF"/><path d="M132 108c-.822 0-1.5-.678-1.5-1.5v-9c0-.822.678-1.5 1.5-1.5s1.5.678 1.5 1.5v9c0 .822-.678 1.5-1.5 1.5M150 111c-.822 0-1.5-.678-1.5-1.5v-9c0-.822.678-1.5 1.5-1.5s1.5.678 1.5 1.5v9c0 .822-.678 1.5-1.5 1.5M168 111c-.822 0-1.5-.678-1.5-1.5v-9c0-.822.678-1.5 1.5-1.5s1.5.678 1.5 1.5v9c0 .822-.678 1.5-1.5 1.5" fill="#46A046"/><path d="m145.242 108-6-6H123c-1.056 1.92-1.104 4.128 0 6h13.758l6 6H177s-.18-5.688 0-6h-31.758Z" fill="#323232"/><path d="M126 105.002a3.001 3.001 0 0 1-6 0 3.001 3.001 0 0 1 6 0M180 111.002a3.001 3.001 0 0 1-6 0 3.001 3.001 0 0 1 6 0" fill="#323232"/></g></svg>